<svg width="22" height="40" viewBox="0 0 22 40" fill="none" xmlns="http://www.w3.org/2000/svg">
<g clip-path="url(#clip0_83_13)">
<path d="M0.0537109 4.30127C0.16136 4.39075 0.260016 4.48432 0.356287 4.58654C0.683775 4.93205 1.05462 5.20952 1.47566 5.42456C1.50648 5.44031 1.53729 5.45606 1.56904 5.47229C2.17649 5.75924 2.83443 5.77624 3.46103 5.54442C3.81605 5.40484 4.13099 5.20087 4.42688 4.9588C4.43574 4.97689 4.44459 4.99497 4.45371 5.0136C4.43553 5.0622 4.43553 5.0622 4.40519 5.12169C4.38855 5.15527 4.38855 5.15527 4.37157 5.18953C4.35939 5.21397 4.34721 5.23841 4.33466 5.2636C3.86139 6.24891 3.72276 7.33953 3.72429 8.42627C3.72432 8.44964 3.72434 8.473 3.72437 8.49708C3.72538 8.93592 3.74283 9.37102 3.78298 9.80812C3.78488 9.82901 3.78677 9.84991 3.78873 9.87144C3.91255 11.2253 4.0953 12.5823 4.34639 13.9177C4.35233 13.9498 4.35826 13.9819 4.36437 14.0149C4.56419 15.0811 5.0532 16.0264 5.74152 16.8492C5.75829 16.8694 5.77506 16.8896 5.79234 16.9104C6.10373 17.2742 6.4401 17.6259 6.82287 17.9111C6.87002 17.9464 6.91652 17.9824 6.96298 18.0186C7.61026 18.5191 8.33035 18.8885 9.07014 19.2244C9.14732 19.2595 9.22432 19.2949 9.30132 19.3304C9.64794 19.489 9.99813 19.6385 10.3494 19.7859C10.3838 19.8003 10.3838 19.8003 10.4189 19.815C10.6638 19.9176 10.9088 20.0175 11.1577 20.1095C11.5566 20.2591 11.9352 20.4633 12.3147 20.6574C12.3476 20.6742 12.3806 20.691 12.4136 20.7078C13.5665 21.2978 14.6793 22.0149 15.6349 22.9033C15.6878 22.952 15.7415 22.9991 15.7958 23.0461C16.0642 23.2857 16.3076 23.5488 16.5269 23.8355C16.5501 23.8644 16.5734 23.8933 16.5968 23.9221C17.1759 24.6435 17.5613 25.4923 17.5196 26.4383C17.5123 26.5026 17.5029 26.5661 17.4927 26.63C17.4122 26.5586 17.3703 26.4753 17.32 26.38C16.9241 25.6521 16.3329 24.9538 15.6877 24.4434C15.6235 24.3907 15.5628 24.3361 15.5017 24.2797C15.3774 24.1662 15.2473 24.0634 15.1133 23.9622C15.0899 23.9444 15.0664 23.9266 15.0423 23.9083C14.7204 23.6644 14.3945 23.4288 14.0586 23.2054C14.0264 23.184 14.0264 23.184 13.9936 23.1621C13.6108 22.9083 13.2211 22.6688 12.8244 22.4383C12.7965 22.422 12.7685 22.4057 12.7397 22.3889C11.7307 21.804 10.6963 21.2758 9.61634 20.8417C9.0096 20.5978 8.41992 20.3198 7.8342 20.0273C7.7989 20.0098 7.7989 20.0098 7.76289 19.992C7.39336 19.8091 7.0356 19.6077 6.68054 19.3972C6.65772 19.3837 6.6349 19.3702 6.61138 19.3563C5.94023 18.958 5.28794 18.5129 4.69517 17.9999C4.66742 17.9766 4.63964 17.9534 4.61186 17.9301C4.232 17.609 3.8651 17.2525 3.56835 16.8492C3.54556 16.8201 3.52275 16.791 3.49991 16.7619C3.17154 16.3349 2.95391 15.8525 2.78946 15.339C2.73654 15.1743 2.67494 15.0138 2.61255 14.8526C2.05665 13.3936 1.66247 11.8794 1.2837 10.3644C1.26316 10.2824 1.24249 10.2004 1.22175 10.1184C0.949931 9.04143 0.739063 7.94909 0.538839 6.85617C0.53441 6.832 0.529981 6.80783 0.525418 6.78293C0.481724 6.54427 0.438293 6.30556 0.395512 6.06672C0.375657 5.95596 0.355682 5.84522 0.335628 5.73449C0.329856 5.7026 0.329856 5.7026 0.323967 5.67007C0.261139 5.3246 0.189445 4.98171 0.110757 4.63965C0.103271 4.60699 0.0957854 4.57433 0.0880728 4.54067C0.0814215 4.51215 0.0747702 4.48362 0.0679173 4.45424C0.0537109 4.38346 0.0537109 4.38346 0.0537109 4.30127Z" fill="#F1FAEE"/>
<path d="M21.9195 4.30127C21.954 4.40692 21.9339 4.46178 21.9088 4.57004C21.9 4.6092 21.8911 4.64835 21.8823 4.68751C21.8775 4.70832 21.8727 4.72912 21.8678 4.75056C21.7811 5.12863 21.703 5.50784 21.634 5.88967C21.6281 5.92217 21.6281 5.92217 21.6221 5.95532C21.602 6.06684 21.5819 6.17838 21.562 6.28994C21.519 6.52993 21.475 6.76973 21.431 7.00953C21.4266 7.03341 21.4223 7.05729 21.4178 7.0819C21.188 8.33488 20.9158 9.57291 20.6027 10.8066C20.5796 10.8978 20.5566 10.9891 20.5336 11.0803C20.1912 12.436 19.8221 13.8028 19.296 15.0978C19.2325 15.254 19.1782 15.4103 19.1293 15.5718C18.9597 16.119 18.6323 16.5816 18.2707 17.0136C18.2533 17.0344 18.2359 17.0553 18.218 17.0767C17.9309 17.4111 17.6209 17.7257 17.278 17.9999C17.2288 18.0426 17.1796 18.0854 17.1305 18.1283C16.787 18.4209 16.4198 18.6844 16.0439 18.9314C16.025 18.9439 16.006 18.9564 15.9865 18.9692C15.0551 19.5818 14.0768 20.1188 13.0692 20.5889C13.0414 20.6023 13.0137 20.6157 12.9851 20.6294C12.9593 20.6412 12.9334 20.653 12.9067 20.6651C12.873 20.6808 12.873 20.6808 12.8386 20.6969C12.6977 20.7287 12.5703 20.6404 12.4476 20.5759C12.4168 20.5599 12.386 20.5438 12.3543 20.5273C12.3302 20.5147 12.3302 20.5147 12.3056 20.5019C12.0101 20.3476 11.7125 20.2044 11.4044 20.0781C11.3044 20.036 11.2059 19.9905 11.1073 19.9451C11.1911 19.8741 11.2722 19.836 11.374 19.7974C11.4225 19.7788 11.4225 19.7788 11.472 19.7597C11.4893 19.7531 11.5066 19.7465 11.5244 19.7398C12.3335 19.4305 13.1198 19.0682 13.8975 18.6848C13.9219 18.6729 13.9219 18.6729 13.9468 18.6606C14.4218 18.428 14.4218 18.428 14.8634 18.1369C14.8961 18.113 14.9288 18.0891 14.9615 18.0652C15.5361 17.6433 16.0968 17.1531 16.5268 16.5752C16.5436 16.553 16.5436 16.553 16.5607 16.5304C16.7669 16.2565 16.947 15.9696 17.1171 15.6711C17.1275 15.653 17.1379 15.6349 17.1486 15.6163C17.1585 15.599 17.1684 15.5817 17.1786 15.5639C17.1871 15.5491 17.1955 15.5343 17.2043 15.519C17.4062 15.139 17.4949 14.7231 17.5799 14.303C17.5849 14.2781 17.59 14.2533 17.5952 14.2277C17.9096 12.6745 18.1405 11.0631 18.2439 9.47935C18.2457 9.45179 18.2457 9.45179 18.2475 9.42368C18.2678 9.10719 18.2772 8.79137 18.2774 8.47421C18.2774 8.45128 18.2775 8.42835 18.2775 8.40472C18.2761 7.26781 18.113 6.12666 17.591 5.10992C17.5762 5.07813 17.5615 5.04635 17.5463 5.0136C17.5552 4.99552 17.564 4.97743 17.5732 4.9588C17.6097 4.98762 17.6097 4.98762 17.647 5.01702C18.2523 5.48687 18.9528 5.78955 19.7278 5.69062C20.627 5.54444 21.3034 4.94151 21.9195 4.30127Z" fill="#F1FAEE"/>
<path d="M16.8756 23.1782C17.2947 23.235 17.7363 23.655 18.0561 23.9179C18.0714 23.9305 18.0867 23.9431 18.1025 23.956C18.8621 24.5867 19.4236 25.4193 19.6927 26.3837C19.698 26.4023 19.7033 26.4208 19.7088 26.44C19.8551 26.9725 19.8761 27.5851 19.6927 28.1097C19.6756 28.1603 19.6756 28.1603 19.6582 28.2119C19.4669 28.7507 19.1413 29.2187 18.7593 29.634C18.7089 29.6891 18.6616 29.7453 18.6145 29.8032C18.379 30.0795 18.0966 30.3232 17.8146 30.5481C17.7905 30.5675 17.7905 30.5675 17.7659 30.5873C16.9947 31.2061 16.1563 31.7204 15.2927 32.1919C15.2659 32.2066 15.2392 32.2213 15.2116 32.2364C13.9709 32.9154 12.6643 33.4552 11.3364 33.9278C10.4743 34.2347 9.62759 34.5765 8.79672 34.9631C8.74867 34.9854 8.70054 35.0075 8.65241 35.0297C7.8361 35.4055 7.02023 35.8047 6.25123 36.2741C6.21244 36.2977 6.21244 36.2977 6.17288 36.3217C5.36151 36.8157 4.57656 37.361 3.89025 38.0275C3.87505 38.0423 3.85985 38.057 3.84419 38.0722C3.31243 38.5915 2.86198 39.2151 2.65611 39.9453C2.6384 39.9453 2.62069 39.9453 2.60245 39.9453C2.42825 39.111 2.6255 38.3799 3.06693 37.6679C3.28226 37.3313 3.53666 37.0286 3.80977 36.7399C3.83387 36.7144 3.83387 36.7144 3.85846 36.6883C4.04275 36.4943 4.22813 36.307 4.43638 36.1395C4.51089 36.0795 4.58275 36.0169 4.65489 35.9539C5.02358 35.6402 5.41937 35.3621 5.82196 35.096C5.84228 35.0825 5.86261 35.0691 5.88354 35.0552C6.21376 34.8368 6.55135 34.6337 6.89513 34.4385C6.91949 34.4246 6.94384 34.4108 6.96894 34.3965C8.05549 33.7803 9.18127 33.2606 10.3465 32.8199C11.3755 32.4307 12.3763 31.9734 13.361 31.4796C13.3826 31.4688 13.4043 31.4579 13.4266 31.4468C13.5484 31.3858 13.6695 31.3234 13.7903 31.2604C13.8235 31.2432 13.8235 31.2432 13.8574 31.2256C14.264 31.0144 14.66 30.7878 15.0512 30.5481C15.0758 30.5331 15.1004 30.5181 15.1257 30.5026C15.6038 30.2091 16.0635 29.8893 16.5 29.5344C16.5374 29.5042 16.5374 29.5042 16.5755 29.4734C16.7634 29.3191 16.9423 29.1559 17.1171 28.9864C17.1316 28.9724 17.146 28.9585 17.1609 28.944C17.7597 28.3609 18.2408 27.6305 18.2741 26.761C18.3027 25.4144 17.8932 24.3851 17.0366 23.37C17.0036 23.3306 16.9706 23.2912 16.9377 23.2519C16.9172 23.2276 16.8967 23.2033 16.8756 23.1782Z" fill="#F1FAEE"/>
<path d="M6.1421 5.18596C6.23506 5.21871 6.3014 5.29023 6.37361 5.35618C6.40744 5.38646 6.44129 5.41671 6.47516 5.44693C6.49184 5.46187 6.50851 5.47681 6.52569 5.4922C6.58955 5.54879 6.65496 5.60328 6.72072 5.65755C6.85073 5.76532 6.97777 5.8763 7.1046 5.98792C7.19917 6.07096 7.29461 6.15262 7.39145 6.23289C7.52146 6.34067 7.6485 6.45165 7.77534 6.56326C7.8699 6.64631 7.96534 6.72796 8.06218 6.80823C8.19219 6.91601 8.31923 7.02699 8.44607 7.13861C8.54063 7.22165 8.63607 7.3033 8.73291 7.38358C8.86292 7.49135 8.98996 7.60233 9.1168 7.71395C9.21136 7.79699 9.3068 7.87864 9.40364 7.95892C9.53366 8.06669 9.66069 8.17767 9.78753 8.28929C9.88209 8.37233 9.97753 8.45399 10.0744 8.53426C10.2044 8.64204 10.3314 8.75301 10.4583 8.86463C10.5528 8.94768 10.6483 9.02933 10.7451 9.1096C10.875 9.21731 11.0021 9.32809 11.1287 9.43986C11.2255 9.52508 11.324 9.60735 11.4242 9.68837C11.8146 10.0145 12.1166 10.466 12.1805 10.9863C12.2205 11.5502 12.0746 12.0339 11.7294 12.476C11.5982 12.6289 11.4542 12.7552 11.2951 12.8767C11.2708 12.8961 11.2465 12.9155 11.2215 12.9355C11.1866 12.9623 11.1866 12.9623 11.1509 12.9897C11.1302 13.0056 11.1095 13.0215 11.0882 13.0379C11.0268 13.0685 11.0268 13.0685 10.9597 13.0666C10.8772 13.0353 10.8319 12.9938 10.7686 12.9315C10.6759 12.8429 10.5824 12.7578 10.4835 12.6764C10.3678 12.5807 10.2542 12.4829 10.1414 12.3836C10.0308 12.2862 9.91951 12.1899 9.80608 12.0959C9.67607 11.9881 9.54903 11.8772 9.42219 11.7655C9.32763 11.6825 9.23219 11.6008 9.13535 11.5206C9.02192 11.4265 8.91065 11.3303 8.79998 11.2329C8.66541 11.1145 8.52923 10.9985 8.39136 10.8841C8.23367 10.7522 8.07892 10.6166 7.92358 10.4818C7.77455 10.3525 7.62538 10.2236 7.47361 10.0976C7.34312 9.98919 7.21548 9.87767 7.08805 9.76554C6.99349 9.6825 6.89805 9.60084 6.8012 9.52056C6.67119 9.41279 6.54415 9.30181 6.41731 9.19019C6.32275 9.10715 6.22731 9.0255 6.13047 8.94522C5.56383 8.47396 5.02159 8.0125 4.91729 7.22797C4.86443 6.68675 5.04591 6.21509 5.36657 5.79111C5.50274 5.62369 5.9088 5.15058 6.1421 5.18596Z" fill="#F1FAEE"/>
<path d="M4.10493 0.54794C4.59956 0.960612 4.9532 1.51016 5.04396 2.16438C5.10029 2.95925 4.94492 3.62115 4.43112 4.23749C4.03032 4.69951 3.4682 4.97133 2.87079 5.04109C2.18424 5.08319 1.53705 4.9111 1.00605 4.4452C0.487129 3.96754 0.198855 3.34241 0.155999 2.62853C0.141577 1.9354 0.385958 1.31272 0.841823 0.805859C1.69267 -0.098298 3.12772 -0.218355 4.10493 0.54794Z" fill="#F1FAEE"/>
<path d="M20.9675 0.566272C21.4574 0.969213 21.7931 1.53837 21.8842 2.17971C21.9489 2.89997 21.7969 3.56186 21.35 4.13113C21.2915 4.19962 21.2312 4.2647 21.1683 4.32901C21.1483 4.34977 21.1283 4.37054 21.1076 4.39194C20.6439 4.84592 20.031 5.05229 19.3955 5.04964C18.7492 5.03462 18.1364 4.76942 17.6805 4.30161C17.1896 3.76799 16.9936 3.10455 17.0022 2.38262C17.0227 1.72657 17.3469 1.112 17.8079 0.666336C18.6962 -0.119806 20.0367 -0.168918 20.9675 0.566272Z" fill="#F1FAEE"/>
<path d="M9.32844 20.8561C9.35051 20.8651 9.37257 20.8741 9.3953 20.8833C9.46639 20.9123 9.53733 20.9416 9.60827 20.971C9.63231 20.9809 9.65635 20.9907 9.68112 21.0009C9.96202 21.1165 10.2418 21.2337 10.5154 21.3665C10.5379 21.3774 10.5604 21.3883 10.5835 21.3995C10.7281 21.472 10.7281 21.472 10.7586 21.5343C10.7359 21.5437 10.7131 21.553 10.6897 21.5626C10.0878 21.8105 9.49466 22.074 8.90735 22.3562C8.87937 22.3697 8.87937 22.3697 8.85083 22.3834C8.41312 22.5939 7.98079 22.8117 7.55887 23.054C7.4804 23.0988 7.4016 23.143 7.32275 23.1872C6.60981 23.5878 5.92259 24.03 5.2854 24.548C5.24805 24.5782 5.24805 24.5782 5.20994 24.609C5.02197 24.7633 4.84354 24.9269 4.66833 25.096C4.65515 25.1085 4.64197 25.121 4.6284 25.1339C4.01247 25.722 3.5525 26.4832 3.51128 27.3598C3.473 28.7639 3.98899 29.8619 4.90979 30.8768C4.89208 30.8858 4.87437 30.8949 4.85613 30.9042C4.78124 30.8677 4.71016 30.8295 4.63814 30.7878C4.61659 30.7754 4.59505 30.763 4.57285 30.7502C3.75041 30.2694 3.03392 29.6015 2.54881 28.7672C2.53952 28.7512 2.53022 28.7352 2.52064 28.7188C2.29065 28.3168 2.14095 27.8775 2.03906 27.4247C2.03301 27.3992 2.02695 27.3737 2.02072 27.3475C1.86164 26.561 2.0921 25.7921 2.49516 25.1234C2.66583 24.8635 2.86414 24.6265 3.07419 24.3993C3.12974 24.339 3.18247 24.2775 3.23464 24.2141C3.34448 24.0853 3.46901 23.9749 3.59516 23.8631C3.62338 23.8377 3.65161 23.8123 3.67984 23.7869C4.2099 23.3131 4.78568 22.8939 5.39116 22.5269C5.44276 22.4954 5.49403 22.4635 5.5452 22.4314C5.83693 22.2487 6.13735 22.0826 6.43906 21.9179C6.46383 21.9044 6.48861 21.8908 6.51414 21.8769C7.25029 21.4762 8.00485 21.1251 8.7732 20.7946C8.79569 20.7832 8.81817 20.7717 8.84134 20.7599C9.00863 20.7089 9.17435 20.7923 9.32844 20.8561Z" fill="#F1FAEE"/>
<path d="M15.8417 5.17578C15.931 5.21467 16.0078 5.26547 16.0858 5.32358C16.1022 5.33575 16.1186 5.34793 16.1355 5.36047C16.5867 5.70465 16.9336 6.16963 17.029 6.74941C17.0833 7.27023 16.9556 7.75055 16.6442 8.16604C16.6143 8.20225 16.5841 8.23823 16.5537 8.27392C16.5414 8.28999 16.5292 8.30606 16.5166 8.32261C16.4196 8.44737 16.3048 8.54241 16.1832 8.64143C16.0852 8.72162 15.9909 8.80598 15.8963 8.89036C15.758 9.01353 15.618 9.13382 15.4753 9.25177C15.3865 9.32634 15.2993 9.40272 15.2122 9.4794C15.0783 9.5972 14.9428 9.71241 14.8056 9.82614C14.7165 9.90112 14.6289 9.97778 14.5415 10.0547C14.4076 10.1725 14.272 10.2878 14.1348 10.4015C14.0457 10.4765 13.9582 10.5531 13.8707 10.6301C13.7362 10.7485 13.6 10.8645 13.4621 10.9789C13.3796 11.0479 13.2981 11.1179 13.2168 11.1883C13.2023 11.2008 13.1879 11.2132 13.1731 11.2261C13.0962 11.2926 13.0195 11.3595 12.9431 11.4266C12.9275 11.4403 12.9118 11.4541 12.8956 11.4682C12.8657 11.4944 12.8358 11.5207 12.8059 11.5471C12.7352 11.6089 12.6689 11.6613 12.5829 11.6986C12.5868 11.6489 12.5868 11.6489 12.5907 11.5982C12.6392 10.9036 12.4783 10.3686 12.0359 9.8352C11.8776 9.65193 11.6947 9.49672 11.5097 9.34241C11.4952 9.33026 11.4806 9.31811 11.4657 9.3056C11.3915 9.244 11.3168 9.1832 11.2415 9.12323C11.2745 9.02186 11.3122 8.99866 11.394 8.93317C11.5152 8.83445 11.6339 8.73362 11.7512 8.63008C11.8851 8.51226 12.0206 8.39707 12.1578 8.28334C12.2469 8.20836 12.3345 8.1317 12.4219 8.05474C12.5558 7.93694 12.6914 7.82173 12.8286 7.70799C12.9177 7.63301 13.0052 7.55636 13.0927 7.4794C13.2272 7.36099 13.3634 7.24502 13.5013 7.13062C13.6439 7.01131 13.7839 6.88897 13.9244 6.76707C14.0883 6.62482 14.2521 6.48265 14.419 6.34412C14.5495 6.2357 14.6772 6.12418 14.8046 6.01205C14.8992 5.929 14.9946 5.84735 15.0915 5.76707C15.2236 5.6575 15.353 5.5449 15.4819 5.4314C15.5117 5.40524 15.5415 5.37919 15.5714 5.35327C15.6005 5.32749 15.629 5.30095 15.6569 5.27376C15.7575 5.17864 15.7575 5.17864 15.8417 5.17578Z" fill="#F1FAEE"/>
<path d="M13.3006 33.5273C13.3178 33.5353 13.3351 33.5433 13.3528 33.5515C13.4094 33.5779 13.4657 33.6047 13.522 33.6316C13.5616 33.6503 13.6012 33.669 13.6408 33.6877C14.2241 33.9638 14.7982 34.2555 15.3538 34.5864C15.4278 34.6305 15.502 34.6741 15.5763 34.7178C16.3392 35.169 17.0762 35.6826 17.7239 36.2957C17.7811 36.3496 17.8393 36.4018 17.8985 36.4535C18.5954 37.0735 19.2721 37.9922 19.3707 38.9587C19.3735 39.0449 19.3733 39.131 19.3724 39.2172C19.3723 39.2399 19.3722 39.2625 19.372 39.2859C19.3717 39.3412 19.3712 39.3965 19.3707 39.4518C19.353 39.4609 19.3353 39.4699 19.3171 39.4792C19.2951 39.4375 19.2951 39.4375 19.2727 39.3949C19.1432 39.152 19.0049 38.9278 18.8341 38.7121C18.8134 38.6853 18.7926 38.6586 18.7713 38.631C18.4675 38.2469 18.1171 37.8899 17.7341 37.5888C17.7046 37.5642 17.6752 37.5395 17.6458 37.5148C17.1927 37.1344 16.7028 36.8083 16.2049 36.4929C16.1867 36.4814 16.1685 36.4699 16.1497 36.458C16.035 36.3857 15.9191 36.3155 15.8024 36.2463C15.7809 36.2336 15.7593 36.2208 15.7371 36.2076C15.3349 35.9701 14.9257 35.748 14.5116 35.533C14.4595 35.5059 14.4075 35.4786 14.3554 35.4514C13.7734 35.1469 13.183 34.8677 12.5829 34.6025C12.5469 34.5865 12.5108 34.5706 12.4748 34.5546C12.11 34.3932 11.744 34.2346 11.3756 34.082C11.4121 34.0074 11.4587 34.0027 11.5329 33.9771C11.5513 33.971 11.5698 33.9649 11.5888 33.9586C11.6079 33.952 11.6271 33.9454 11.6468 33.9387C11.6881 33.9246 11.7293 33.9105 11.7706 33.8966C12.1089 33.7822 12.4439 33.6639 12.7726 33.5228C12.7951 33.5134 12.8176 33.5039 12.8408 33.4942C12.8599 33.486 12.8789 33.4777 12.8985 33.4692C13.0514 33.4249 13.1596 33.4611 13.3006 33.5273Z" fill="#F1FAEE"/>
<path d="M4.21222 27.3975C4.27007 27.4528 4.3112 27.5055 4.34983 27.5761C4.36552 27.6042 4.36552 27.6042 4.38152 27.633C4.39261 27.653 4.40369 27.6731 4.41512 27.6937C4.61865 28.0532 4.85655 28.3734 5.12442 28.6851C5.14392 28.7081 5.16343 28.7311 5.18352 28.7548C5.42243 29.0317 5.67901 29.2973 5.95612 29.5344C5.97974 29.5555 6.00337 29.5766 6.0277 29.5983C6.28788 29.8294 6.56389 30.0382 6.84149 30.2468C6.86259 30.2627 6.88368 30.2786 6.90542 30.295C7.1903 30.5096 7.48075 30.712 7.78051 30.9043C7.81239 30.9248 7.81239 30.9248 7.84491 30.9458C8.42785 31.3206 9.02367 31.6698 9.63173 32.0002C9.65481 32.0128 9.67788 32.0253 9.70165 32.0383C10.0067 32.2044 10.3146 32.3642 10.6244 32.5207C10.6244 32.5388 10.6244 32.5569 10.6244 32.5755C10.6027 32.5841 10.5811 32.5926 10.5587 32.6014C10.4749 32.6344 10.391 32.6674 10.3072 32.7005C10.2695 32.7153 10.2317 32.7302 10.194 32.745C9.99278 32.8241 9.79205 32.9039 9.59285 32.9881C9.54733 33.0072 9.54733 33.0072 9.50088 33.0268C9.44384 33.0508 9.38691 33.0752 9.33012 33.0999C9.30453 33.1107 9.27893 33.1215 9.25256 33.1326C9.23046 33.1421 9.20835 33.1516 9.18558 33.1615C9.06475 33.1934 8.97301 33.1486 8.86731 33.0898C8.8443 33.077 8.82129 33.0643 8.79758 33.0511C8.76061 33.0302 8.76061 33.0302 8.72289 33.0088C8.69688 32.9941 8.67086 32.9794 8.64406 32.9643C7.95873 32.5745 7.29949 32.1366 6.68051 31.644C6.6563 31.6248 6.6321 31.6056 6.60715 31.5858C6.54154 31.5329 6.47673 31.4792 6.41222 31.4249C6.37279 31.3917 6.37279 31.3917 6.33257 31.358C5.39135 30.5599 4.36091 29.4719 4.19084 28.1731C4.15628 27.5976 4.15628 27.5976 4.21222 27.3975Z" fill="#F1FAEE"/>
</g>
<defs>
<clipPath id="clip0_83_13">
<rect width="22" height="40" fill="white"/>
</clipPath>
</defs>
</svg>
