<svg width="35" height="63" viewBox="0 0 35 63" fill="none" xmlns="http://www.w3.org/2000/svg">
<g clip-path="url(#clip0_83_2)">
<path d="M0.0853271 6.77466C0.256586 6.91558 0.41354 7.06296 0.566698 7.22396C1.0877 7.76814 1.67769 8.20516 2.34752 8.54384C2.39655 8.56864 2.44557 8.59345 2.49608 8.61901C3.46248 9.07097 4.5092 9.09774 5.50606 8.73262C6.07087 8.51277 6.57191 8.19153 7.04264 7.81027C7.05673 7.83875 7.07081 7.86723 7.08533 7.89658C7.05641 7.97312 7.05641 7.97312 7.00813 8.06682C6.98165 8.11971 6.98165 8.11971 6.95464 8.17366C6.93526 8.21216 6.91589 8.25066 6.89592 8.29033C6.143 9.84218 5.92245 11.5599 5.92489 13.2715C5.92493 13.3083 5.92497 13.3451 5.92501 13.3831C5.92662 14.0742 5.95437 14.7595 6.01825 15.4479C6.02127 15.4809 6.02429 15.5138 6.0274 15.5477C6.2244 17.68 6.51512 19.8172 6.9146 21.9205C6.92403 21.9711 6.93347 22.0216 6.94319 22.0737C7.26109 23.7529 8.03906 25.2418 9.13411 26.5377C9.16079 26.5695 9.18748 26.6013 9.21497 26.6341C9.71035 27.207 10.2455 27.7609 10.8545 28.2101C10.9295 28.2657 11.0034 28.3225 11.0773 28.3795C12.1071 29.1677 13.2527 29.7496 14.4296 30.2786C14.5524 30.3338 14.6749 30.3896 14.7974 30.4455C15.3489 30.6954 15.906 30.9307 16.4649 31.1629C16.5196 31.1856 16.5196 31.1856 16.5755 31.2088C16.9649 31.3704 17.3548 31.5278 17.7507 31.6726C18.3853 31.9083 18.9877 32.2299 19.5914 32.5356C19.6439 32.5621 19.6963 32.5885 19.7487 32.615C21.583 33.5442 23.3533 34.6736 24.8736 36.0728C24.9577 36.1495 25.0432 36.2238 25.1295 36.2978C25.5565 36.6752 25.9438 37.0895 26.2926 37.5411C26.3296 37.5866 26.3667 37.6321 26.4039 37.6775C27.3252 38.8137 27.9383 40.1506 27.8719 41.6404C27.8603 41.7417 27.8453 41.8417 27.8292 41.9425C27.7011 41.8299 27.6345 41.6988 27.5545 41.5487C26.9246 40.4022 25.9841 39.3023 24.9576 38.4985C24.8555 38.4155 24.7589 38.3295 24.6617 38.2406C24.464 38.0619 24.2569 37.9 24.0438 37.7407C24.0065 37.7126 23.9692 37.6846 23.9308 37.6557C23.4187 37.2716 22.9001 36.9005 22.3658 36.5486C22.3147 36.5149 22.3147 36.5149 22.2625 36.4805C21.6535 36.0808 21.0334 35.7035 20.4024 35.3404C20.3579 35.3148 20.3134 35.2892 20.2676 35.2627C18.6623 34.3414 17.0167 33.5095 15.2986 32.8259C14.3333 32.4417 13.3952 32.0038 12.4634 31.5432C12.4072 31.5156 12.4072 31.5156 12.3499 31.4876C11.762 31.1995 11.1929 30.8824 10.628 30.5507C10.5917 30.5294 10.5554 30.5082 10.518 30.4863C9.45024 29.859 8.41251 29.1579 7.46947 28.35C7.42531 28.3133 7.38113 28.2767 7.33692 28.2401C6.7326 27.7343 6.1489 27.1728 5.67679 26.5377C5.64055 26.4918 5.60425 26.4459 5.56792 26.4001C5.04551 25.7277 4.69928 24.9678 4.43765 24.1592C4.35346 23.8997 4.25547 23.6469 4.15621 23.3931C3.27182 21.0951 2.64472 18.7101 2.04213 16.3241C2.00945 16.1949 1.97656 16.0658 1.94358 15.9367C1.51113 14.2404 1.17566 12.52 0.857121 10.7986C0.850076 10.7606 0.84303 10.7225 0.835771 10.6833C0.766257 10.3074 0.697163 9.93141 0.629101 9.55525C0.597514 9.38079 0.565735 9.20637 0.533831 9.03198C0.524648 8.98175 0.524648 8.98176 0.51528 8.93052C0.415327 8.3864 0.301267 7.84634 0.176082 7.3076C0.164173 7.25616 0.152264 7.20472 0.139994 7.15172C0.129412 7.10679 0.118831 7.06187 0.107928 7.01558C0.0853271 6.90411 0.0853271 6.90411 0.0853271 6.77466Z" fill="#3CA09B"/>
<path d="M34.872 6.77466C34.9269 6.94105 34.8948 7.02746 34.855 7.19797C34.8409 7.25964 34.8268 7.32131 34.8128 7.38299C34.8051 7.41576 34.7975 7.44853 34.7897 7.48229C34.6518 8.07775 34.5276 8.67501 34.4178 9.27639C34.4085 9.32757 34.4085 9.32757 34.3989 9.37979C34.3668 9.55543 34.335 9.73111 34.3032 9.90681C34.2348 10.2848 34.1648 10.6625 34.0949 11.0402C34.0879 11.0778 34.0809 11.1154 34.0738 11.1541C33.7082 13.1276 33.2752 15.0775 32.7771 17.0206C32.7403 17.1643 32.7037 17.308 32.6671 17.4517C32.1224 19.5869 31.5353 21.7395 30.6982 23.7792C30.5973 24.0252 30.5108 24.2714 30.433 24.5258C30.1632 25.3876 29.6423 26.1162 29.0671 26.7966C29.0394 26.8294 29.0118 26.8622 28.9833 26.896C28.5264 27.4226 28.0333 27.9182 27.4878 28.35C27.4095 28.4173 27.3312 28.4847 27.2531 28.5523C26.7066 29.013 26.1226 29.4281 25.5244 29.8171C25.4943 29.8368 25.4642 29.8564 25.4332 29.8767C23.9514 30.8415 22.395 31.6872 20.792 32.4277C20.7478 32.4488 20.7037 32.4698 20.6582 32.4915C20.6171 32.5101 20.5759 32.5286 20.5335 32.5478C20.4799 32.5725 20.4799 32.5725 20.4252 32.5977C20.2009 32.6479 19.9984 32.5087 19.8031 32.4072C19.7541 32.3819 19.7051 32.3567 19.6547 32.3307C19.6163 32.3109 19.6163 32.3109 19.5772 32.2906C19.1071 32.0476 18.6336 31.8221 18.1434 31.6232C17.9843 31.5569 17.8276 31.4852 17.6708 31.4137C17.8041 31.3019 17.9331 31.2419 18.0951 31.1811C18.1723 31.1517 18.1723 31.1517 18.251 31.1217C18.2785 31.1113 18.306 31.101 18.3343 31.0903C19.6216 30.6032 20.8725 30.0326 22.1098 29.4288C22.1486 29.4099 22.1486 29.4099 22.1882 29.3906C22.9439 29.0243 22.9439 29.0243 23.6464 28.5658C23.6984 28.5281 23.7504 28.4904 23.8024 28.4528C24.7166 27.7884 25.6086 27.0163 26.2927 26.1062C26.3194 26.0712 26.3194 26.0712 26.3466 26.0355C26.6746 25.6042 26.9613 25.1523 27.2318 24.6822C27.2483 24.6537 27.2649 24.6252 27.282 24.5958C27.2977 24.5686 27.3134 24.5414 27.3296 24.5133C27.3431 24.49 27.3566 24.4666 27.3705 24.4426C27.6917 23.8442 27.8328 23.189 27.968 22.5274C27.9761 22.4882 27.9841 22.4491 27.9924 22.4088C28.4926 19.9625 28.8599 17.4245 29.0244 14.9301C29.0273 14.8867 29.0273 14.8867 29.0302 14.8424C29.0625 14.344 29.0774 13.8466 29.0778 13.347C29.0778 13.3109 29.0778 13.2748 29.0779 13.2376C29.0756 11.447 28.8162 9.64965 27.9857 8.04828C27.9623 7.99822 27.9388 7.94815 27.9147 7.89658C27.9288 7.8681 27.9428 7.83962 27.9574 7.81027C28.0155 7.85566 28.0155 7.85566 28.0749 7.90197C29.0379 8.64198 30.1522 9.1187 31.3852 8.96289C32.8158 8.73265 33.8919 7.78304 34.872 6.77466Z" fill="#3CA09B"/>
<path d="M26.8476 36.5055C27.5143 36.5949 28.2168 37.2564 28.7257 37.6705C28.75 37.6903 28.7743 37.7102 28.7994 37.7306C30.0079 38.7238 30.9012 40.0352 31.3293 41.5541C31.3378 41.5834 31.3462 41.6126 31.3549 41.6427C31.5877 42.4814 31.6212 43.4463 31.3293 44.2726C31.3022 44.3523 31.3022 44.3523 31.2745 44.4336C30.9701 45.2821 30.4521 46.0193 29.8444 46.6734C29.7642 46.76 29.6889 46.8486 29.614 46.9399C29.2393 47.375 28.7901 47.7589 28.3415 48.113C28.3031 48.1436 28.3031 48.1436 28.2639 48.1748C27.0371 49.1494 25.7032 49.9594 24.3293 50.7021C24.2868 50.7252 24.2442 50.7483 24.2004 50.7722C22.2265 51.8415 20.1478 52.6918 18.0353 53.4361C16.6638 53.9195 15.3167 54.4578 13.9948 55.0666C13.9184 55.1017 13.8418 55.1366 13.7652 55.1715C12.4666 55.7634 11.1686 56.3922 9.94518 57.1315C9.88347 57.1686 9.88347 57.1686 9.82053 57.2064C8.52971 57.9845 7.28093 58.8434 6.18908 59.8931C6.1649 59.9164 6.14072 59.9396 6.1158 59.9635C5.26981 60.7814 4.55319 61.7635 4.22566 62.9137C4.19749 62.9137 4.16932 62.9137 4.1403 62.9137C3.86316 61.5995 4.17697 60.4481 4.87925 59.3268C5.22181 58.7966 5.62654 58.3198 6.06103 57.8651C6.09938 57.8249 6.09938 57.8249 6.1385 57.7839C6.43169 57.4783 6.72661 57.1833 7.05791 56.9195C7.17645 56.8249 7.29078 56.7263 7.40554 56.6272C7.99209 56.133 8.62177 55.6951 9.26225 55.276C9.29458 55.2548 9.32691 55.2336 9.36022 55.2117C9.88557 54.8678 10.4226 54.5479 10.9696 54.2404C11.0083 54.2186 11.0471 54.1967 11.087 54.1742C12.8156 53.2037 14.6066 52.3852 16.4603 51.6912C18.0974 51.0781 19.6896 50.3578 21.2562 49.5801C21.2906 49.5631 21.3251 49.546 21.3605 49.5285C21.5543 49.4323 21.7469 49.3342 21.9391 49.2349C21.9919 49.2078 21.9919 49.2078 22.0458 49.1801C22.6928 48.8474 23.3228 48.4905 23.9452 48.113C23.9843 48.0894 24.0233 48.0657 24.0636 48.0414C24.8242 47.5791 25.5556 47.0754 26.2501 46.5164C26.3095 46.4689 26.3095 46.4689 26.3701 46.4204C26.6691 46.1774 26.9537 45.9204 27.2318 45.6534C27.2548 45.6314 27.2778 45.6093 27.3015 45.5866C28.2542 44.6683 29.0195 43.5178 29.0725 42.1484C29.118 40.0275 28.4664 38.4063 27.1037 36.8075C27.0512 36.7455 26.9988 36.6835 26.9463 36.6214C26.9137 36.5832 26.8812 36.5449 26.8476 36.5055Z" fill="#3CA09B"/>
<path d="M9.77149 8.16787C9.91937 8.21944 10.0249 8.33209 10.1398 8.43596C10.1936 8.48365 10.2475 8.53129 10.3014 8.57889C10.3279 8.60242 10.3544 8.62595 10.3817 8.65019C10.4833 8.73932 10.5874 8.82513 10.692 8.91061C10.8989 9.08036 11.101 9.25515 11.3027 9.43095C11.4532 9.56174 11.605 9.69034 11.7591 9.81678C11.9659 9.98652 12.168 10.1613 12.3698 10.3371C12.5203 10.4679 12.6721 10.5965 12.8262 10.7229C13.033 10.8927 13.2351 11.0675 13.4369 11.2433C13.5873 11.3741 13.7392 11.5027 13.8932 11.6291C14.1001 11.7989 14.3022 11.9736 14.504 12.1494C14.6544 12.2802 14.8062 12.4088 14.9603 12.5353C15.1671 12.705 15.3693 12.8798 15.571 13.0556C15.7215 13.1864 15.8733 13.315 16.0274 13.4414C16.2342 13.6112 16.4363 13.786 16.6381 13.9618C16.7886 14.0926 16.9404 14.2212 17.0945 14.3476C17.3012 14.5172 17.5033 14.6917 17.7047 14.8677C17.8587 15.002 18.0154 15.1315 18.1749 15.2592C18.7959 15.7729 19.2764 16.484 19.378 17.3034C19.4417 18.1915 19.2096 18.9533 18.6604 19.6497C18.4517 19.8904 18.2225 20.0895 17.9695 20.2808C17.9308 20.3114 17.8922 20.3419 17.8524 20.3734C17.7968 20.4157 17.7968 20.4157 17.74 20.4588C17.7071 20.4838 17.6742 20.5089 17.6403 20.5347C17.5426 20.5829 17.5426 20.5829 17.4359 20.5798C17.3047 20.5305 17.2326 20.4653 17.1318 20.3671C16.9843 20.2275 16.8355 20.0935 16.6783 19.9653C16.4941 19.8146 16.3135 19.6605 16.1341 19.5041C15.958 19.3507 15.781 19.1991 15.6005 19.051C15.3937 18.8813 15.1916 18.7065 14.9898 18.5307C14.8394 18.3999 14.6875 18.2713 14.5335 18.1449C14.353 17.9968 14.176 17.8452 13.9999 17.6918C13.7858 17.5053 13.5692 17.3226 13.3499 17.1424C13.099 16.9346 12.8528 16.7211 12.6057 16.5088C12.3686 16.3051 12.1313 16.1021 11.8898 15.9037C11.6822 15.7329 11.4791 15.5573 11.2764 15.3807C11.126 15.2499 10.9741 15.1213 10.8201 14.9949C10.6132 14.8251 10.4111 14.6503 10.2093 14.4745C10.0589 14.3437 9.90705 14.2151 9.75299 14.0887C8.85151 13.3465 7.98886 12.6197 7.82292 11.384C7.73884 10.5316 8.02755 9.78874 8.53769 9.12097C8.75433 8.85729 9.40033 8.11214 9.77149 8.16787Z" fill="#3CA09B"/>
<path d="M6.53055 0.863016C7.31745 1.51297 7.88006 2.37852 8.02445 3.40891C8.11408 4.66082 7.86689 5.70332 7.04948 6.67406C6.41184 7.40174 5.51756 7.82986 4.56713 7.93973C3.4749 8.00603 2.44528 7.735 1.6005 7.0012C0.774951 6.24889 0.316333 5.26431 0.248153 4.13994C0.225208 3.04826 0.613997 2.06754 1.33924 1.26924C2.69286 -0.154809 4.97589 -0.343898 6.53055 0.863016Z" fill="#3CA09B"/>
<path d="M33.3574 0.891499C34.1369 1.52613 34.6708 2.42255 34.8158 3.43267C34.9187 4.56708 34.677 5.60955 33.966 6.50614C33.8729 6.61401 33.7769 6.71653 33.6769 6.81781C33.645 6.85051 33.6132 6.88322 33.5803 6.91692C32.8426 7.63194 31.8675 7.95698 30.8565 7.9528C29.8282 7.92915 28.8535 7.51146 28.1281 6.77466C27.3472 5.93421 27.0353 4.88928 27.049 3.75225C27.0816 2.71896 27.5973 1.75101 28.3308 1.0491C29.744 -0.189075 31.8766 -0.266426 33.3574 0.891499Z" fill="#3CA09B"/>
<path d="M14.8407 32.8483C14.8758 32.8624 14.9109 32.8765 14.9471 32.891C15.0601 32.9367 15.173 32.9829 15.2859 33.0291C15.3241 33.0447 15.3624 33.0603 15.4018 33.0763C15.8487 33.2584 16.2938 33.4429 16.7291 33.6521C16.7648 33.6693 16.8006 33.6864 16.8374 33.7041C17.0674 33.8183 17.0674 33.8183 17.1159 33.9164C17.0798 33.9311 17.0436 33.9458 17.0064 33.9609C16.0487 34.3514 15.1051 34.7665 14.1708 35.211C14.1263 35.2321 14.1263 35.2321 14.0809 35.2537C13.3845 35.5853 12.6967 35.9283 12.0255 36.3099C11.9006 36.3805 11.7753 36.4501 11.6498 36.5196C10.5156 37.1507 9.4223 37.847 8.40858 38.663C8.34916 38.7106 8.34916 38.7106 8.28853 38.7591C7.98949 39.0021 7.70561 39.2598 7.42687 39.526C7.40591 39.5457 7.38495 39.5655 7.36335 39.5858C6.38347 40.5121 5.6517 41.711 5.58612 43.0915C5.52522 45.3031 6.34611 47.0324 7.81102 48.6308C7.78285 48.6451 7.75468 48.6593 7.72565 48.674C7.60651 48.6165 7.49343 48.5564 7.37885 48.4906C7.34457 48.4711 7.31029 48.4515 7.27497 48.4314C5.96655 47.6742 4.82667 46.6222 4.05492 45.3082C4.04013 45.283 4.02533 45.2579 4.01009 45.2319C3.6442 44.5988 3.40604 43.907 3.24394 43.1938C3.23432 43.1537 3.22469 43.1135 3.21477 43.0721C2.96169 41.8335 3.32833 40.6224 3.96955 39.5692C4.24108 39.1599 4.55657 38.7865 4.89074 38.4287C4.97912 38.3337 5.06301 38.2369 5.146 38.1371C5.32076 37.9342 5.51887 37.7604 5.71955 37.5842C5.76446 37.5442 5.80937 37.5042 5.85427 37.4642C6.69755 36.718 7.61357 36.0577 8.57683 35.4797C8.65892 35.4302 8.7405 35.3799 8.8219 35.3293C9.28601 35.0416 9.76395 34.7799 10.2439 34.5205C10.2834 34.4992 10.3228 34.4779 10.3634 34.4559C11.5345 33.8249 12.735 33.272 13.9574 32.7514C13.9931 32.7334 14.0289 32.7153 14.0658 32.6968C14.3319 32.6164 14.5956 32.7478 14.8407 32.8483Z" fill="#3CA09B"/>
<path d="M25.2028 8.15194C25.3447 8.21319 25.467 8.2932 25.5911 8.38472C25.6172 8.40389 25.6432 8.42307 25.6701 8.44283C26.3879 8.9849 26.9399 9.71726 27.0917 10.6304C27.178 11.4507 26.9748 12.2072 26.4794 12.8616C26.4319 12.9186 26.3839 12.9753 26.3354 13.0315C26.3159 13.0568 26.2964 13.0821 26.2764 13.1082C26.1221 13.3047 25.9395 13.4544 25.746 13.6103C25.5901 13.7366 25.44 13.8695 25.2896 14.0024C25.0696 14.1964 24.8468 14.3858 24.6199 14.5716C24.4785 14.6891 24.3398 14.8094 24.2012 14.9301C23.9883 15.1157 23.7726 15.2971 23.5543 15.4763C23.4126 15.5944 23.2733 15.7151 23.1342 15.8363C22.9212 16.0218 22.7055 16.2033 22.4872 16.3824C22.3455 16.5005 22.2062 16.6213 22.0671 16.7425C21.853 16.929 21.6363 17.1116 21.417 17.2918C21.2858 17.4005 21.1561 17.5108 21.0267 17.6217C21.0037 17.6413 20.9808 17.6609 20.9572 17.6812C20.8348 17.786 20.7129 17.8913 20.5914 17.997C20.5664 18.0186 20.5415 18.0402 20.5158 18.0625C20.4681 18.1038 20.4206 18.1452 20.3731 18.1868C20.2606 18.2841 20.1551 18.3666 20.0183 18.4253C20.0244 18.3471 20.0244 18.3471 20.0306 18.2672C20.1078 17.1733 19.8518 16.3307 19.1481 15.4905C18.8963 15.2019 18.6052 14.9574 18.311 14.7144C18.2878 14.6952 18.2647 14.6761 18.2408 14.6564C18.1229 14.5594 18.0041 14.4636 17.8842 14.3692C17.9368 14.2095 17.9968 14.173 18.1269 14.0698C18.3197 13.9143 18.5086 13.7555 18.6951 13.5925C18.9081 13.4069 19.1238 13.2255 19.342 13.0463C19.4838 12.9282 19.6231 12.8075 19.7622 12.6863C19.9752 12.5008 20.1908 12.3193 20.4091 12.1402C20.5509 12.0221 20.6901 11.9013 20.8293 11.7801C21.0434 11.5937 21.26 11.411 21.4794 11.2308C21.7062 11.0429 21.929 10.8502 22.1524 10.6582C22.4132 10.4342 22.6738 10.2103 22.9394 9.99208C23.147 9.82131 23.3501 9.64567 23.5528 9.46906C23.7032 9.33826 23.8551 9.20966 24.0092 9.08322C24.2194 8.91065 24.4253 8.7333 24.6304 8.55454C24.6777 8.51334 24.7251 8.47232 24.7727 8.43149C24.8191 8.39088 24.8644 8.34909 24.9087 8.30625C25.0688 8.15645 25.0688 8.15645 25.2028 8.15194Z" fill="#3CA09B"/>
<path d="M21.16 52.8058C21.1875 52.8184 21.2149 52.831 21.2431 52.844C21.3331 52.8855 21.4226 52.9278 21.5122 52.9702C21.5752 52.9996 21.6383 53.029 21.7013 53.0585C22.6292 53.4934 23.5426 53.9528 24.4264 54.4739C24.5442 54.5434 24.6623 54.6121 24.7804 54.6809C25.9941 55.3916 27.1666 56.2005 28.197 57.1661C28.2881 57.251 28.3808 57.3332 28.4748 57.4147C29.5835 58.3912 30.6601 59.8381 30.817 61.3603C30.8215 61.4961 30.8211 61.6316 30.8197 61.7675C30.8195 61.8032 30.8193 61.8389 30.8191 61.8756C30.8186 61.9628 30.8179 62.0499 30.817 62.137C30.7889 62.1512 30.7607 62.1655 30.7317 62.1801C30.6968 62.1144 30.6968 62.1144 30.6612 62.0473C30.4551 61.6647 30.2351 61.3116 29.9634 60.9719C29.9304 60.9298 29.8974 60.8876 29.8633 60.8442C29.38 60.2393 28.8227 59.677 28.2134 59.2027C28.1664 59.164 28.1196 59.1251 28.0728 59.0861C27.352 58.487 26.5725 57.9735 25.7805 57.4767C25.7515 57.4586 25.7226 57.4404 25.6927 57.4217C25.5101 57.3078 25.3258 57.1972 25.1402 57.0884C25.1059 57.0682 25.0716 57.0481 25.0362 57.0273C24.3964 56.6532 23.7454 56.3035 23.0866 55.9648C23.0037 55.9221 22.9209 55.8792 22.8381 55.8363C21.9123 55.3567 20.9729 54.917 20.0183 54.4993C19.9609 54.4742 19.9036 54.449 19.8463 54.4239C19.2659 54.1696 18.6837 53.9199 18.0975 53.6795C18.1556 53.5621 18.2297 53.5546 18.3477 53.5144C18.3771 53.5047 18.4064 53.4951 18.4367 53.4851C18.4671 53.4748 18.4976 53.4644 18.529 53.4538C18.5946 53.4316 18.6603 53.4094 18.726 53.3875C19.2641 53.2073 19.7971 53.021 20.32 52.7988C20.3558 52.7839 20.3917 52.7691 20.4286 52.7537C20.4589 52.7408 20.4891 52.7278 20.5203 52.7144C20.7635 52.6446 20.9357 52.7016 21.16 52.8058Z" fill="#3CA09B"/>
<path d="M6.70128 43.1507C6.79331 43.2378 6.85875 43.3209 6.92019 43.432C6.94515 43.4764 6.94515 43.4764 6.97062 43.5216C6.98826 43.5532 7.00589 43.5847 7.02407 43.6172C7.34787 44.1835 7.72634 44.6878 8.1525 45.1788C8.18353 45.215 8.21456 45.2512 8.24653 45.2885C8.62661 45.7247 9.03481 46.1429 9.47567 46.5164C9.51325 46.5496 9.55083 46.5828 9.58954 46.6171C10.0035 46.981 10.4426 47.3099 10.8842 47.6384C10.9178 47.6634 10.9513 47.6885 10.9859 47.7143C11.4391 48.0523 11.9012 48.3711 12.3781 48.674C12.4288 48.7063 12.4288 48.7063 12.4806 48.7393C13.408 49.3296 14.3559 49.8796 15.3232 50.4C15.3599 50.4198 15.3966 50.4396 15.4345 50.46C15.9198 50.7215 16.4095 50.9734 16.9025 51.2199C16.9025 51.2483 16.9025 51.2768 16.9025 51.3062C16.868 51.3196 16.8335 51.333 16.798 51.3468C16.6646 51.3988 16.5312 51.4508 16.3978 51.5029C16.3378 51.5263 16.2777 51.5497 16.2177 51.5731C15.8976 51.6977 15.5783 51.8234 15.2614 51.9559C15.1889 51.9861 15.1889 51.9861 15.1151 52.0168C15.0243 52.0548 14.9337 52.0932 14.8434 52.1321C14.8027 52.149 14.762 52.166 14.72 52.1835C14.6848 52.1985 14.6497 52.2135 14.6134 52.229C14.4212 52.2793 14.2753 52.2088 14.1071 52.1161C14.0705 52.096 14.0339 52.0759 13.9962 52.0552C13.9374 52.0222 13.9374 52.0222 13.8773 51.9885C13.836 51.9654 13.7946 51.9423 13.7519 51.9185C12.6616 51.3045 11.6128 50.6148 10.6281 49.839C10.5896 49.8088 10.5511 49.7785 10.5114 49.7473C10.407 49.664 10.3039 49.5794 10.2013 49.4938C10.1386 49.4417 10.1386 49.4417 10.0746 49.3885C8.57716 48.1315 6.93782 46.4179 6.66726 44.3724C6.61228 43.4659 6.61228 43.4659 6.70128 43.1507Z" fill="#3CA09B"/>
</g>
<defs>
<clipPath id="clip0_83_2">
<rect width="35" height="63" fill="white"/>
</clipPath>
</defs>
</svg>
